<svg width="32" height="32" viewBox="0 0 32 32" fill="none" xmlns="http://www.w3.org/2000/svg">
  <rect width="32" height="32" rx="8" fill="#09090b"/>
  <g transform="translate(4, 4)">
    <path d="M2 21c.6.5 1.2 1 2.5 1 2.5 0 2.5-2 5-2 1.3 0 1.9.5 2.5 1 .6.5 1.2 1 2.5 1 2.5 0 2.5-2 5-2 1.3 0 1.9.5 2.5 1" stroke="#6366f1" stroke-width="1.8" stroke-linecap="round" stroke-linejoin="round"/>
    <path d="M19.38 20A11.6 11.6 0 0 0 21 14l-9-4-9 4c0 2.9.94 5.34 2.81 7.76" stroke="#6366f1" stroke-width="1.8" stroke-linecap="round" stroke-linejoin="round"/>
    <path d="M12 2v10" stroke="#818cf8" stroke-width="1.8" stroke-linecap="round"/>
    <path d="M12 4l7 6" stroke="#818cf8" stroke-width="1.8" stroke-linecap="round" stroke-linejoin="round"/>
    <path d="M12 8l-3 2" stroke="#818cf8" stroke-width="1.8" stroke-linecap="round" stroke-linejoin="round"/>
  </g>
</svg>
